# xmcd CD database file
# Generated: Di Sep 14 21:16:46 2004 by KSCD
# 
# Track frame offsets:
#       150
#       21750
#       38265
#       59512
#       78610
#       95617
#       112455
#       133085
#       150000
#       166767
#       186392
#       204592
#       223425
#       241707
#       259467
#       277465
#       294897
#       312165
#
# Disc length: 4335 seconds
#
# Revision: 2
# Processed by: cddbd v1.5.1PL0 Copyright (c) Steve Scherf et al.
# Submitted via: Kscd 1.3.3
#
DISCID=0d10ed12
DTITLE=Various Artist - The Most Beautiful Soul Album on Earth CD1
DYEAR=1900
DGENRE=
TTITLE0=Kiss From a Rose (Seal)
TTITLE1=You Might Need Somebody (Randy Crawford)
TTITLE2=I Believe I Can Fly (R. Kelley)
TTITLE3=Let's Stay Together (Tina Turner)
TTITLE4=Just The Way You Are (Barry White)
TTITLE5=Goodbye Heatbreak (Lighthouse Family)
TTITLE6=Get Here (Oleta Adams)
TTITLE7=So Close (Dina Carroll)
TTITLE8=Love T.K.O (Teddy Pendergrass)
TTITLE9=Killing Me Softly With Her Song (Luther Vandross)
TTITLE10=Earth Bound (Conner Reeves)
TTITLE11=When You Tell Me That You Love Me (Diana Ross)
TTITLE12=Forget Me Nots (Patrice Rushen)
TTITLE13=Beeing With You (Smokey Robinson)
TTITLE14=Lovely Day (Bill Withers)
TTITLE15=Suddenly (Billy Ocean)
TTITLE16=Wishing  On a Star (Rose Royce)
TTITLE17=My Girl (Otis Redding)
EXTD=
EXTT0=
EXTT1=
EXTT2=
EXTT3=
EXTT4=
EXTT5=
EXTT6=
EXTT7=
EXTT8=
EXTT9=
EXTT10=
EXTT11=
EXTT12=
EXTT13=
EXTT14=
EXTT15=
EXTT16=
EXTT17=
PLAYORDER=
